Patient4_TMGait_0pt2_03_right_09_EMG.mot
version=1
nRows=20
nColumns=33
inDegrees=no
endheader
time	1LAddLong	2LGlutMax	3LGlutMed	4LIliopsoas	5LSemiMemb	6LBicFemLong	7LRecFem	8LVastMed	9LVastLat	10LGasMed	11LTibAnt	12lTibPost	13LPeroneusLong	14LSol	15LExtDigLong	16LFlexDigLong	17RAddLong	18RGlutMax	19RGlutMed	20RIliopsoas	21RSemiMemb	22RBicFemLong	23RRecFem	24RVastMed	25RVastLat	26RGasMed	27RTibAnt	28RTibPost	29RPeroneusLong	30RSol	31RExtDigLong	32RFlexDigLong
19.922	0.000305	0.092163	0.036469	0.010529	-0.081787	0.063324	-0.037384	0.00473	0.021057	0.044861	0.10422	-0.000763	0.077667	0.5307	-0.026398	-0.62134	-0.007935	-0.064087	0.1976	0.17609	0.013275	0.025177	0.14893	0.088654	-0.18601	0.001221	0.10346	0.051727	0.97168	0.050049	0.00473	-0.007782
19.923	0.010681	0.049591	0.005646	0.006866	-0.099182	0.04364	-0.0354	0.001373	0.020142	0.075226	0.091858	0.002136	0.043945	0.48828	-0.27527	0.48828	0.00473	-0.17716	-0.08606	0.26764	0.008392	0.021973	-0.001373	-0.30563	-0.1973	-0.005493	0.14069	0.011749	1.3428	0.10391	0.005951	-0.01709
19.924	0.003204	0.072021	-0.009308	0.007935	0.017548	0.012054	-0.028534	0.001526	0.028229	0.088959	0.028687	-0.000763	0.033875	0.32166	-0.096436	0.028381	-0.007324	-0.12314	0.013885	0.15137	0.011597	0.025482	-0.24796	-0.55512	-0.16403	-0.00061	0.11871	-0.000916	0.58929	0.054169	0.001068	-0.018005
19.925	0.00351	0.11185	0.001221	0.014496	-0.011139	-0.002136	-0.018921	0.001831	0.010834	0.08606	0.00412	0.008392	-0.002136	0.054626	-0.05249	0.17227	0.003815	-0.083008	0.004425	0.005951	0.007172	0.003967	-0.19196	-0.61111	0.054626	0.00473	-0.03891	-0.005188	-0.044403	0.24506	-0.000153	-0.004272
19.926	-0.00885	0.10834	-0.002441	0.022278	0.007629	-0.000153	-0.029449	0.000305	0.030365	0.065002	-0.021362	0.003204	0.007172	-0.17914	-0.021973	0.15503	0.007935	-0.057373	0.005798	-0.057678	-0.009003	-0.014801	0.044403	-0.40543	0.15152	0.006409	-0.25711	-0.002136	-0.72754	0.31342	-0.000458	-0.007019
19.927	-0.016022	0.1004	0.037231	-0.003662	-0.010834	-0.001831	-0.023651	0.009308	0.028839	0.056152	-0.034943	0.003052	0.034027	-0.32333	-0.006104	-0.043945	0.022125	-0.068512	-0.12207	-0.042114	-0.021362	-0.087585	0.15656	-0.27039	0.028534	0.006409	-0.27649	-0.009918	-0.78217	0.018311	-0.002136	0.000916
19.928	-0.027161	0.10849	-0.00412	-0.005798	-0.043945	0.002747	-0.044708	0.01236	0.03418	0.046844	0.007477	0.005341	0.012512	-0.64255	0.046387	0.25177	0.028229	-0.066681	-0.3537	0.047913	-0.030518	-0.19821	0.19363	-0.17746	-0.041504	0.005951	-0.20477	-0.01297	0.46097	-0.21164	-0.000305	-0.001526
19.929	-0.024109	0.12787	0.024719	-0.010376	-0.017242	-0.024109	-0.033722	0.005188	0.096436	-0.013275	0.020142	0.006561	-0.044098	-0.55786	0.077972	0.082703	0.015411	-0.058136	-0.076447	0.050659	-0.024261	-0.21606	0.034485	-0.21606	0.26398	-0.003052	-0.10269	-0.009918	0.013275	-0.12619	0.000458	-0.001831
19.93	-0.006866	0.13077	0.02594	0.007629	0.058441	-0.078735	-0.050659	0.003662	0.068665	-0.021667	0.016479	0.010071	-0.019379	-0.13702	0.10407	-1.3266	-0.00412	0.031891	0.50079	-0.062866	-0.014191	-0.20248	-0.04776	-0.086975	0.28595	-0.000763	-0.005493	-0.017548	-0.62668	-0.21408	-0.000916	-0.003967
19.931	0.005951	0.14252	0.036621	0.016174	0.030823	-0.056763	-0.062714	-0.001678	0.086975	-0.11307	0.022888	0.004578	-0.003357	-0.10895	0.093231	0.86441	0.011292	-0.024109	0.4451	-0.12161	-0.022736	-0.27512	-0.033112	-0.068512	-0.1828	-0.000763	0.056	-0.020142	1.3567	0.002899	0.001984	-0.001526
19.932	0.006256	0.13565	0.039825	0.006866	-0.024109	-0.038147	-0.042114	-0.001831	0.079346	-0.051422	0.020447	0.010223	-0.06134	-0.16922	0.075836	1.006	-0.002747	-0.031891	0.30777	-0.035095	-0.013885	-0.2977	-0.35934	0.031586	0.0354	-0.000763	0.040741	-0.013885	0.91599	0.11261	0.00061	-0.006714
19.933	0.005798	0.13001	0.06073	0.005188	0.011139	0.001068	-0.019073	0.00061	0.056458	-0.075684	0.020905	0.000153	-0.050964	0.066376	0.064545	-0.95688	-0.023956	-0.12833	-0.15442	0.10696	-0.011597	-0.242	-0.52445	-0.087891	0.25101	0.019379	-0.12207	0.000305	0.57953	0.091858	-0.004883	-0.004578
19.934	0.006866	0.11627	0.074158	0.013123	0.053711	0.010834	-0.00946	-0.006866	0.048523	-0.062408	0.010529	0.009003	-0.007172	0.34836	0.034943	0.15976	-0.003967	-0.18097	-0.36636	0.23865	-0.012817	-0.19455	-0.15045	-0.21698	0.09079	0.005646	0.001068	0.010376	-0.20218	0.048523	0.000153	-0.002594
19.935	0.001678	0.15472	0.040436	0.01236	0.011292	0.054321	-0.004425	0.003815	0.034485	-0.038605	0.005341	-0.001373	-0.039978	0.49545	-0.022583	-0.4184	0.002899	-0.13931	-0.025635	0.1712	-0.021057	-0.098267	0.16373	-0.1857	-0.065155	-0.007935	0.028839	0.00061	-0.010834	0.070343	0.000305	-0.00885
19.936	0.004272	0.12054	0.068817	0.014954	0.019836	0.042114	-0.016937	-0.000916	0.044403	-0.021362	0.020294	-0.000458	-0.052338	0.43488	-0.011902	0.20935	0.012054	-0.098114	0.13672	0.055237	-0.009308	0.079346	0.19562	-0.10483	0.10468	-0.028534	0.013733	-0.001678	-0.62958	0.047913	0.004578	-0.014038
19.937	0.00473	0.1178	0.098267	-0.005341	-0.004578	0.025787	-0.043182	-0.003967	0.063324	0.045624	0.014954	0.005951	-0.054932	0.16235	-0.038452	-0.13611	0.030212	-0.11643	0.28091	0.004425	-0.001678	0.20187	0.23041	-0.051422	0.28153	-0.031586	0.089722	-0.003815	-0.80475	0.015411	-0.00061	-0.014648
19.938	-0.002747	0.069122	-0.024261	-0.001984	-0.0177	0.001221	-0.026245	0.009155	0.024719	0.069275	-0.001068	0.011749	0.05722	-0.27924	-0.009918	0.66528	0.010986	-0.17578	0.14435	0.016632	0.00351	0.31693	0.2475	-0.059052	0.18066	-0.036316	0.061035	-0.000305	-0.15366	-0.037689	0.001373	-0.012207
19.939	-0.00061	0.092316	-0.028076	-0.016327	-0.010376	-0.014191	-0.014801	0.003357	0.028839	0.069122	-0.007019	0.019531	0.18845	-1.004	0.068512	0.23377	0.011902	-0.14938	-0.22018	0.018921	0.006256	0.35187	0.28915	-0.000763	-0.13489	-0.018311	0.003052	-0.003815	-0.031433	-0.027771	-0.000763	-0.015564
19.94	-0.003357	0.10651	-0.027466	-0.008087	-0.027466	-0.013428	-0.048828	0.003815	0.036926	0.11414	-0.014496	0.011902	0.1796	-0.90698	0.080261	-0.1004	0.023346	-0.12894	-0.14755	0.049286	0.034637	0.16235	0.10315	0.048676	-0.094452	0.009003	-0.066833	-0.002899	-0.51041	0.037689	-0.001831	-0.01297
19.941	-0.002136	0.1358	-0.019989	0.005341	-0.055847	-0.095367	-0.069275	-0.00946	0.054932	0.12054	0.002594	-0.066833	0.11566	-0.54489	0.058899	-0.64987	0.037537	-0.052643	0.12009	0.006256	0.035706	0.016632	-0.041656	0.12924	-0.039368	0.027924	0.059967	-0.001526	-0.15076	0.009918	0.000763	-0.001526
